HIERARCHY
ROOT Hips
{
	OFFSET -14.64140 90.27770 -84.91600
	CHANNELS 6 Xposition Yposition Zposition Zrotation Xrotation Yrotation
	JOINT Spine
	{
		OFFSET 0.00000 13.20850 -1.60436
		CHANNELS 3 Zrotation Xrotation Yrotation
		JOINT Spine1
		{
			OFFSET 0.00000 8.61716 0.00000
			CHANNELS 3 Zrotation Xrotation Yrotation
			JOINT Spine2
			{
				OFFSET 0.00000 8.61717 0.00000
				CHANNELS 3 Zrotation Xrotation Yrotation
				JOINT Spine3
				{
					OFFSET 0.00000 8.61717 0.00000
					CHANNELS 3 Zrotation Xrotation Yrotation
					JOINT Neck
					{
						OFFSET 0.00000 11.07920 1.10792
						CHANNELS 3 Zrotation Xrotation Yrotation
						JOINT Neck1
						{
							OFFSET 0.00000 7.08032 0.00000
							CHANNELS 3 Zrotation Xrotation Yrotation
							JOINT Head
							{
								OFFSET 0.00000 7.08031 0.00000
								CHANNELS 3 Zrotation Xrotation Yrotation
								End site
								{
									OFFSET 0.00000 0.00000 0.00000
								}
							}
						}
					}
					JOINT RightShoulder
					{
						OFFSET -0.01000 7.91373 5.19711
						CHANNELS 3 Zrotation Xrotation Yrotation
						JOINT RightArm
						{
							OFFSET -18.41580 0.00000 0.00000
							CHANNELS 3 Zrotation Xrotation Yrotation
							JOINT RightForeArm
							{
								OFFSET -29.11090 0.00000 0.00000
								CHANNELS 3 Zrotation Xrotation Yrotation
								JOINT RightHand
								{
									OFFSET -24.65040 0.00000 0.00000
									CHANNELS 3 Zrotation Xrotation Yrotation
									JOINT RightHandThumb1
									{
										OFFSET -5.35114 -0.85590 3.97906
										CHANNELS 3 Zrotation Xrotation Yrotation
										JOINT RightHandThumb2
										{
											OFFSET -4.52789 0.00000 0.00000
											CHANNELS 3 Zrotation Xrotation Yrotation
											JOINT RightHandThumb3
											{
												OFFSET -2.46976 0.00000 0.00000
												CHANNELS 3 Zrotation Xrotation Yrotation
												End site
												{
													OFFSET 0.00000 0.00000 0.00000
												}
											}
										}
									}
									JOINT RightHandIndex1
									{
										OFFSET -14.26970 0.00000 2.88139
										CHANNELS 3 Zrotation Xrotation Yrotation
										JOINT RightHandIndex2
										{
											OFFSET -5.48836 0.00000 0.00000
											CHANNELS 3 Zrotation Xrotation Yrotation
											JOINT RightHandIndex3
											{
												OFFSET -3.01859 0.00000 0.00000
												CHANNELS 3 Zrotation Xrotation Yrotation
												End site
												{
													OFFSET 0.00000 0.00000 0.00000
												}
											}
										}
									}
									JOINT RightHandMiddle1
									{
										OFFSET -14.26970 0.00000 -0.09147
										CHANNELS 3 Zrotation Xrotation Yrotation
										JOINT RightHandMiddle2
										{
											OFFSET -6.17441 0.00000 0.00000
											CHANNELS 3 Zrotation Xrotation Yrotation
											JOINT RightHandMiddle3
											{
												OFFSET -3.56743 0.00000 0.00000
												CHANNELS 3 Zrotation Xrotation Yrotation
												End site
												{
													OFFSET 0.00000 0.00000 0.00000
												}
											}
										}
									}
									JOINT RightHandRing1
									{
										OFFSET -12.69180 0.00000 -3.06433
										CHANNELS 3 Zrotation Xrotation Yrotation
										JOINT RightHandRing2
										{
											OFFSET -5.62556 0.00000 0.00000
											CHANNELS 3 Zrotation Xrotation Yrotation
											JOINT RightHandRing3
											{
												OFFSET -3.56744 0.00000 0.00000
												CHANNELS 3 Zrotation Xrotation Yrotation
												End site
												{
													OFFSET 0.00000 0.00000 0.00000
												}
											}
										}
									}
									JOINT RightHandPinky1
									{
										OFFSET -11.11390 0.00000 -6.03719
										CHANNELS 3 Zrotation Xrotation Yrotation
										JOINT RightHandPinky2
										{
											OFFSET -4.52789 0.00000 0.00000
											CHANNELS 3 Zrotation Xrotation Yrotation
											JOINT RightHandPinky3
											{
												OFFSET -2.46976 0.00000 0.00000
												CHANNELS 3 Zrotation Xrotation Yrotation
												End site
												{
													OFFSET 0.00000 0.00000 0.00000
												}
											}
										}
									}
								}
							}
						}
					}
					JOINT LeftShoulder
					{
						OFFSET 0.01000 7.91373 5.19711
						CHANNELS 3 Zrotation Xrotation Yrotation
						JOINT LeftArm
						{
							OFFSET 18.41580 0.00000 0.00000
							CHANNELS 3 Zrotation Xrotation Yrotation
							JOINT LeftForeArm
							{
								OFFSET 29.11090 0.00000 0.00000
								CHANNELS 3 Zrotation Xrotation Yrotation
								JOINT LeftHand
								{
									OFFSET 24.65040 0.00000 0.00000
									CHANNELS 3 Zrotation Xrotation Yrotation
									JOINT LeftHandThumb1
									{
										OFFSET 5.35114 -0.85590 3.97906
										CHANNELS 3 Zrotation Xrotation Yrotation
										JOINT LeftHandThumb2
										{
											OFFSET 4.52789 0.00000 0.00000
											CHANNELS 3 Zrotation Xrotation Yrotation
											JOINT LeftHandThumb3
											{
												OFFSET 2.46977 0.00000 0.00000
												CHANNELS 3 Zrotation Xrotation Yrotation
												End site
												{
													OFFSET 0.00000 0.00000 0.00000
												}
											}
										}
									}
									JOINT LeftHandIndex1
									{
										OFFSET 14.26970 0.00000 2.88139
										CHANNELS 3 Zrotation Xrotation Yrotation
										JOINT LeftHandIndex2
										{
											OFFSET 5.48836 0.00000 0.00000
											CHANNELS 3 Zrotation Xrotation Yrotation
											JOINT LeftHandIndex3
											{
												OFFSET 3.01859 0.00000 0.00000
												CHANNELS 3 Zrotation Xrotation Yrotation
												End site
												{
													OFFSET 0.00000 0.00000 0.00000
												}
											}
										}
									}
									JOINT LeftHandMiddle1
									{
										OFFSET 14.26970 0.00000 -0.09147
										CHANNELS 3 Zrotation Xrotation Yrotation
										JOINT LeftHandMiddle2
										{
											OFFSET 6.17440 0.00000 0.00000
											CHANNELS 3 Zrotation Xrotation Yrotation
											JOINT LeftHandMiddle3
											{
												OFFSET 3.56744 0.00000 0.00000
												CHANNELS 3 Zrotation Xrotation Yrotation
												End site
												{
													OFFSET 0.00000 0.00000 0.00000
												}
											}
										}
									}
									JOINT LeftHandRing1
									{
										OFFSET 12.69180 0.00000 -3.06433
										CHANNELS 3 Zrotation Xrotation Yrotation
										JOINT LeftHandRing2
										{
											OFFSET 5.62556 0.00000 0.00000
											CHANNELS 3 Zrotation Xrotation Yrotation
											JOINT LeftHandRing3
											{
												OFFSET 3.56744 0.00000 0.00000
												CHANNELS 3 Zrotation Xrotation Yrotation
												End site
												{
													OFFSET 0.00000 0.00000 0.00000
												}
											}
										}
									}
									JOINT LeftHandPinky1
									{
										OFFSET 11.11390 0.00000 -6.03719
										CHANNELS 3 Zrotation Xrotation Yrotation
										JOINT LeftHandPinky2
										{
											OFFSET 4.52789 0.00000 0.00000
											CHANNELS 3 Zrotation Xrotation Yrotation
											JOINT LeftHandPinky3
											{
												OFFSET 2.46976 0.00000 0.00000
												CHANNELS 3 Zrotation Xrotation Yrotation
												End site
												{
													OFFSET 0.00000 0.00000 0.00000
												}
											}
										}
									}
								}
							}
						}
					}
					JOINT pCube4
					{
						OFFSET 0.00000 10.91090 1.10792
						CHANNELS 3 Zrotation Xrotation Yrotation
						End site
						{
							OFFSET 0.00000 0.00000 0.00000
						}
					}
				}
			}
		}
	}
	JOINT RightUpLeg
	{
		OFFSET -9.98441 0.00000 0.00000
		CHANNELS 3 Zrotation Xrotation Yrotation
		JOINT RightLeg
		{
			OFFSET 0.00000 -42.11790 0.00000
			CHANNELS 3 Zrotation Xrotation Yrotation
			JOINT RightFoot
			{
				OFFSET 0.00000 -45.00020 -0.00001
				CHANNELS 3 Zrotation Xrotation Yrotation
				JOINT RightForeFoot
				{
					OFFSET 0.00000 -3.74820 0.00000
					CHANNELS 3 Zrotation Xrotation Yrotation
					JOINT RightToeBase
					{
						OFFSET 0.00000 0.06325 14.43120
						CHANNELS 3 Zrotation Xrotation Yrotation
						End site
						{
							OFFSET 0.00000 0.00000 0.00000
						}
					}
				}
			}
		}
	}
	JOINT LeftUpLeg
	{
		OFFSET 9.98441 0.00000 0.00000
		CHANNELS 3 Zrotation Xrotation Yrotation
		JOINT LeftLeg
		{
			OFFSET 0.00000 -42.11800 0.00000
			CHANNELS 3 Zrotation Xrotation Yrotation
			JOINT LeftFoot
			{
				OFFSET 0.00000 -45.00070 0.00000
				CHANNELS 3 Zrotation Xrotation Yrotation
				JOINT LeftForeFoot
				{
					OFFSET 0.00000 -3.74824 0.00000
					CHANNELS 3 Zrotation Xrotation Yrotation
					JOINT LeftToeBase
					{
						OFFSET 0.00000 0.06325 14.43110
						CHANNELS 3 Zrotation Xrotation Yrotation
						End site
						{
							OFFSET 0.00000 0.00000 0.00000
						}
					}
				}
			}
		}
	}
}
MOTION
Frames: 4
Frame Time: 0.050000
-0.0013892012073896116 0.013955365447275152 0.030208129518692003 0.02109901176072989 0.03749509948812235 0.04378352231717462 4.9210212141057035 2.9269213152530718 -2.2244781562515525 -0.6638462855648084 3.829604077329198 0.31432713590801087 -0.6770017200861949 -1.6231739637953686 0.6339946507168065 -0.39036910652267875 -0.5754573473702793 -0.26733619792368574 0.16123385093681544 16.611842479693053 -3.0270600332665967 0.32545227949373706 -0.7017395483625708 -6.145030768900827 1.3185360465345453 -18.230030058231797 -0.5714355420999137 -13.88936653254152 4.280591872747361 -17.832883573917883 82.53111643491961 -11.226687634513173 32.141882641224264 23.869398624287975 10.718628677207047 107.4753531266727 9.335228996008741 -0.22217152297457668 -0.15754810067396172 4.516306912750294 -0.08063734378104043 -1.6074002794198259 -0.012870137394822817 0.04720302744385577 -56.24869714129333 0.028901078596726262 0.036838745344596927 -56.19426738128745 -38.76827721386643 0.034610441743102155 -0.031240668521025288 0.005868472810237741 -0.002621012007702348 0.02111186873604259 0.010711524535502143 -0.013452894901709147 -0.019318424340931936 -36.735602595579074 -0.044867489785916335 0.028324758489707554 0.017102704334501683 0.04070571148498888 0.02250413188558587 0.031228911770550084 0.022912383084439297 0.004252744253332575 -19.76729555673591 -0.01591879068956646 -0.0455672089680192 0.02705534324297788 -0.04931339690228739 0.01320719405420171 0.019646803929280175 -0.026218420938144516 -0.02611465305131456 24.093163099014355 -0.013832440744966992 0.015798319126513208 28.837900458625082 0.012409145780816824 -0.001843986375372891 28.8944696980565 0.036547558485877644 -0.04989112687844959 14.629098871867807 3.275764682059925 14.97554692120193 -77.73342756336388 1.1911640341640324 -37.27042628245446 -34.88896715006927 16.216054785704625 -108.20932244334158 -12.848564890255714 3.8499810063208777 -6.105575115602992 -0.47689423333048697 0.08032448624679374 -8.154113482431905 -0.026408996545444603 -0.015797982506102204 44.555826660148895 0.037665404688539385 0.02008943706477253 44.524299531838146 12.465546931444779 -0.047195522612540085 0.04683617343164888 0.008886878610271265 -0.017376511976420875 0.04443464141464644 -0.031085175823199505 -0.04015937088824025 0.04460899211622945 11.138128404781453 0.02101373182579175 0.0021056599938796615 -0.04336124354394289 -0.019576101711278198 0.0006675164271232695 -0.010260954410674358 0.048409372446548846 -0.008588350749871963 4.73600393002787 0.011796173495382664 -0.007249087388788228 -0.03904966230068778 0.009138402588586118 0.04214155920647329 0.03883022543649618 0.0046267342487702375 0.022915813067655933 -5.587491349420125 0.04828534398418219 0.017185765767671692 -6.7217559847247985 0.040308037588468806 -0.006463354986940346 -6.754746733582232 -0.049782987582762124 -0.004853796876873293 -0.006072875910650403 -0.006431268726399466 -0.00425480436840655 8.033658338707728 3.4983107326483673 -19.177689328823977 0.019355067126952015 10.395785532624211 0.005073368935220762 -5.626412684386093 -15.633097452351372 3.2307379882549854 -0.0014569381323305244 -0.020018056445840187 -0.03910924659465517 0.012782999506860489 4.671971145437679 0.012100537828221744 12.429599117083812 -8.238784002351782 6.884193177533649 0.016120860780182808 46.36311417253781 -0.005046055065375362 -4.29724952375358 -14.743581609086409 -3.858895990330266 0.039005649303549925 -0.02186770219402354 0.016210847682788992 -0.008167827620466174 -10.7271757819775 0.005575524598744473 
-0.026949771010791625 -0.0011650447694009026 0.007265063375705526 -0.020356457825677274 -0.014424099358487059 -0.02961721757993449 4.951021212411748 2.949540485032385 -2.2181992628795877 -0.6987536314817544 3.792797864524695 0.3793159864386524 -0.68100987123038 -1.6612395359350767 0.41686921158988777 -0.35306766008979207 -0.5493826668266276 -0.334512341254059 0.13078408616027395 16.48609485988601 -2.943904742150337 0.3644874966615922 -0.6560633094157631 -5.810769792776069 1.1598453780721116 -18.2311377613788 -0.5882988382311607 -14.046777832531081 4.272765920031016 -17.942976048286074 83.55590745884558 -10.573805128265908 31.002144996805615 26.569238257981496 10.757248313141718 106.69638800556673 9.267026911370111 -0.22342959224481931 -0.5099649948328017 4.542540444496443 -0.15324796491534665 -1.5830558181593612 0.03350431617684662 -0.043827991202581726 -56.2386393964032 -0.007094638175863734 -0.0415925676895119 -56.28040973959635 -38.80807441899697 0.0032929874260678154 -0.025494726973772797 0.023148673730478714 0.04047628106288099 0.0029700851459984654 0.007691910676681001 0.023125843204566943 0.0376552590836151 -36.66435318698936 0.02693327977991848 -0.01994366031768149 -0.04407939757116969 0.031465826676396746 -0.03221270137595706 0.00559418331860431 0.013238391986452646 -0.005174471701926701 -19.77827797827008 -0.023148000748595902 0.012992443971383645 -0.011152180046479986 0.049035375494276584 -0.04447768487446405 -0.002576464693205002 0.04583255056888411 -0.0476672508145417 24.026555873022414 -0.04176575525468529 -0.033034502900578876 28.90766809978279 0.016192196913821167 -0.014344623584466008 28.89471375328915 -0.01257443103962158 0.007198342355881854 14.956946321346681 3.257285703342073 14.95693256153932 -78.31675245930407 0.11183672487415683 -37.460129237622645 -41.16447528691528 16.709023292407473 -109.42587506332359 -12.168795359273838 3.195527887610997 -5.163051075094859 -0.4617517590495797 0.07806630629614547 -8.113963290638194 -0.022318400396544074 0.02962963260888004 44.584039006506615 -0.04768133276428713 0.021898545719508722 44.59467628984238 12.420767894003333 -0.02908626547558251 -0.003880570928015864 -0.03433093822881578 0.044152548300385175 0.0024220299981466214 0.04427596576291095 0.01984963028824 -0.003246799690741412 11.063299294625486 0.010022048309901405 0.03673621391029828 -0.005862815967425626 0.0017285300669403543 0.022954928491007207 -0.006002726985032545 0.018636298113267454 -0.025129247596675015 4.7684710674619595 0.016108324326253202 -0.015540337765105088 0.015674903477078853 -0.02390070415622986 -0.045884799438261556 0.009307244836622992 -0.012741732806757236 -0.036539324377247925 -5.632743441528006 -0.03747830998031761 -0.007319806473077609 -6.753786816387088 0.002490636622915494 -0.015146399483263809 -6.693033973991648 -0.004929775735612779 -0.043676755339496665 0.01834518294163155 0.02544554018810898 -0.03787971977532584 8.003414463696584 3.533440405736612 -19.219804655281585 -0.03215042531975397 10.370140808178009 -0.033140081917891626 -5.651117343533291 -15.61874222096501 3.203833615311307 0.020930079284047325 0.030533207989456457 0.01888377643800509 -0.01365101476619781 4.65741885062327 -0.032540180476264245 12.479942628559106 -8.267714558646508 6.840783391488857 0.009471094926472958 46.33584893566616 0.041887075019932954 -4.315415797024777 -14.74662183053087 -3.8589083916171822 -0.0026779793904283546 -0.009152732344910324 -0.006911712822286579 -0.011406764131784748 -10.730225052843268 -0.03454523116533095 
0.013966995674151439 -0.02468382151882438 0.01204993448056113 -0.017501283988830635 0.004736893809192894 -0.01871720159443317 4.999223468530098 2.9515678356796515 -2.23104323535534 -0.6713984445998837 3.7431436900428885 0.38839516443657485 -0.6203750238840241 -1.6563665563689882 0.3596955698858522 -0.42658613886966895 -0.4681605146410632 -0.3491780317539527 0.07929755832643987 16.431295457446243 -2.915029868140138 0.3385916024946945 -0.6991940770777972 -5.763406802703013 1.2223733170361946 -18.23863822006618 -0.5233249756113088 -14.422741094043223 4.372398675714589 -17.981066509968983 84.73011312784843 -10.84139230425384 30.591142247097526 28.35858646513583 10.54265735744827 105.63009513141091 9.224776781654404 -0.2518983262323213 -0.9681209174230121 4.491270278663472 -0.10334417193702364 -1.5961267248166162 0.0438352986475489 -0.039227851154473754 -56.201023149695814 -0.03448100414049572 0.030699850744390175 -56.23598676970044 -38.748168175058694 0.01665439955013154 -0.040267521906710436 0.0020255565468864025 -0.04057842927093119 0.022737156216244152 0.008833215594138395 -0.023347504011945967 -0.0267754510982487 -36.722929222903694 0.0169512081892094 0.03010886808326033 0.030473198119469514 -0.042480836284526154 -0.003953142137620616 -0.0020995398210102395 0.04748989533215898 0.027742863389294468 -19.733702583687247 -0.0033043103588941865 0.021619908467555075 0.03676315431550562 0.0062788442007169635 0.014303241710460256 0.0191777426154388 -0.015156754723893514 -0.048218528468702615 24.030710237780944 -0.024151759550808956 -0.030606937900438343 28.894040722810903 -0.036859427401983266 -0.03347176425272395 28.875806585084973 -0.007712402154940975 0.025002242409380187 15.250495807535827 3.328501745112685 14.984197435613726 -78.7390322539771 -0.9216733809413639 -36.81753405258053 -46.155695333585946 16.53965099305664 -109.92871527176476 -11.539906623425507 2.702573807560918 -4.292010535111968 -0.4806733540136617 0.07853085216299595 -8.107151719894395 -0.018565278494464658 0.005957587935758973 44.60705079294057 0.023658710486761606 -0.001919880728940457 44.56840013265064 12.464396429654954 -0.029411071834055932 -0.0016478200338067989 0.0020750264412737677 0.013198237918579622 -0.0043444545059334585 0.003077857893883793 -0.00259137660291812 0.005079425487467567 11.12935634806989 0.005377103045018086 -0.02960182434521619 -0.00917646134059232 0.0026194430377159514 -0.04973685526682038 0.02377059874925711 -0.01992112996426717 0.03614160281114641 4.814467342043357 0.03512326154668585 -0.03097293905417892 -0.029528253931071745 -0.030182043936944736 -0.006456613676024471 0.017645892071835482 -0.04530054902415828 0.006716196546190179 -5.609219354013895 -0.028099575601271153 -0.0006653480102570351 -6.674230208886331 -0.02610441262025888 -0.03620696978111117 -6.746813091123052 -0.005298777796512348 -0.02073659459376366 0.01913763045091701 0.003116833592389 -0.0004811143439862845 8.036716368935734 3.4683880428604237 -19.186560767064307 0.006565763830975749 10.424017191338562 0.035269774519736244 -5.611229059250827 -15.70487456950906 3.228933754329761 0.009317642058019535 -0.0025638700385088773 -0.012211845698396144 -0.0044056310802155114 4.726513148838713 0.04102229710797222 12.451941970702542 -8.262237574791584 6.902035957581622 0.025710221380904768 46.33039165635327 0.04687245847841462 -4.354803102054009 -14.742775566936029 -3.8521607723128937 0.028008116675731654 0.0070540704519174565 0.027794901216397605 0.010129639843984331 -10.719828631196304 -0.01742024484256386 
0.004044353231865306 -0.02522349873619885 0.03625535072121639 0.009452004122878346 0.01169804812492025 -0.026366167468704595 4.881079082031022 3.109161759214899 -2.1625547171370356 -0.7423280354447492 3.708639199706773 0.3582626676748231 -0.6530287912102827 -1.6085244195858992 0.33164940236815094 -0.455464117715275 -0.44690329935921186 -0.3616009891226698 0.07379752591693485 16.00563755534332 -2.834744591830874 0.30743226373590776 -0.7719196052522275 -5.874177358961566 1.181056458995067 -18.328339663577218 -0.5739823088299025 -14.344157774673768 4.360883825303406 -17.919467287895767 85.75742569768856 -10.728473436913724 30.16957725698246 29.21477007455941 9.893795986480866 104.88679727249506 9.29680344380386 -0.2771397633672415 -1.4611515466351086 4.538258530369721 -0.1031588022591862 -1.6143103879080545 0.04589880171965925 -0.0256604414465344 -56.20452259561191 0.01867543773093261 -0.020931902899702544 -56.193416843689434 -38.76077474085626 -0.021745790276549177 -0.016513439168739465 -0.004068549766121617 0.027379142970358716 0.014681220232788637 -0.01251011935823606 -0.035800793632845725 0.012085144995187001 -36.70343277993007 0.047409544224286844 -0.027561994059331654 0.0037894553145593132 0.021173199554304592 0.020081321876173935 0.018906129775642013 0.037741480688288497 -0.011606288372812551 -19.75922632593735 0.014582624379550574 0.033959639626300435 -0.007150274708922171 0.04904328909333568 0.030613124553941048 -0.016643844836975837 -0.00748980900337677 -0.010582116255516468 24.08701476270131 -0.03870735488341468 0.01136122626857965 28.83993271013818 -0.0020173805493087396 0.04936919540877256 28.84285756083593 0.03825592616712731 0.012981120057944297 15.141080601617654 3.2613909955359723 14.789079988247405 -79.13961176522326 -1.2502880666512581 -35.684259455456896 -50.311169940471714 15.867093376034916 -110.05121968299939 -10.827365762756962 2.0622163906065647 -3.4269512051307727 -0.5100403921009646 0.0939000338992487 -8.122697305682648 -0.026576630529372782 -0.031933119269238606 44.54882289762021 -0.022967755215356662 -0.004836992886195777 44.5362255345589 12.440478362007427 0.04146186198320041 -0.026854522502894804 -0.020837177637335218 0.025609631578648945 -0.019259814943203595 -0.022957298882185024 0.04773457311376328 0.021109823836723204 11.068130111370335 -0.04280214010971158 0.012934293329325698 0.007012159725289821 0.004187505450306107 0.023494386943087697 -0.03369777265250193 -0.03562617908090771 -0.04899914703885249 4.784538870386303 0.042812561178094594 -0.03392820601203187 -0.030926203081533963 -0.0012219341912219994 -0.03975643315099582 0.03714375837320663 0.04027487557823578 -0.0051786706991574895 -5.554033206258221 0.03546816761810191 -0.0021252205680169834 -6.752184173471622 -0.044303423187243535 0.030791448446775914 -6.675048536082177 0.028245467141329184 -0.000913464572444378 0.024425127708170118 -0.017495471138557362 -0.03632374766221973 8.08357582217624 3.525877723411752 -19.26044865168983 0.036410231259667386 10.351867591791892 0.014645915526450427 -5.57282751269633 -15.675575022824077 3.2339086232282286 0.03556180579043233 -0.04886437712154219 0.04450825465849847 -0.008443200937037416 4.685805253135174 0.02093976095936264 12.475093408179989 -8.234417166442482 6.903428758130042 -0.04386574032331328 46.34127388078111 -0.028197096149143456 -4.345538885291075 -14.732522479464569 -3.8775895433920224 0.037350210643474636 0.048162511347373614 0.04243983210285863 -0.04852957371142682 -10.713255293424922 -0.04708000130331702 
